<svg xmlns="http://www.w3.org/2000/svg" width="1200" height="630" viewBox="0 0 1200 630" fill="none">
  <defs>
    <linearGradient id="bg" x1="90" y1="60" x2="1130" y2="600" gradientUnits="userSpaceOnUse">
      <stop stop-color="#0f172a"/>
      <stop offset="1" stop-color="#111827"/>
    </linearGradient>
    <linearGradient id="card" x1="220" y1="160" x2="980" y2="470" gradientUnits="userSpaceOnUse">
      <stop stop-color="#ffffff" stop-opacity="0.14"/>
      <stop offset="1" stop-color="#ffffff" stop-opacity="0.06"/>
    </linearGradient>
    <filter id="shadow" x="0" y="0" width="1200" height="630" filterUnits="userSpaceOnUse" color-interpolation-filters="sRGB">
      <feDropShadow dx="0" dy="18" stdDeviation="24" flood-color="#000000" flood-opacity="0.35"/>
    </filter>
  </defs>

  <rect width="1200" height="630" rx="56" fill="url(#bg)"/>

  <g filter="url(#shadow)">
    <rect x="120" y="110" width="960" height="410" rx="44" fill="url(#card)" stroke="#ffffff" stroke-opacity="0.16" stroke-width="2"/>
  </g>

  <g transform="translate(180 170)">
    <rect x="0" y="0" width="92" height="92" rx="24" fill="#0b1220" stroke="#ffffff" stroke-opacity="0.14" stroke-width="2"/>
    <g transform="translate(16 18)" stroke="#ffffff" stroke-width="7" stroke-linecap="round" stroke-linejoin="round">
      <path d="M8 16h52"/>
      <path d="M8 56h52"/>
      <path d="M14 16c0 24 14 44 20 44s20-20 20-44"/>
    </g>
  </g>

  <text x="300" y="235" fill="#ffffff" font-size="64" font-family="ui-sans-serif, system-ui, -apple-system, Segoe UI, Roboto, Helvetica, Arial">
    Churrasteio
  </text>
  <text x="300" y="298" fill="#cbd5e1" font-size="30" font-family="ui-sans-serif, system-ui, -apple-system, Segoe UI, Roboto, Helvetica, Arial">
    Divis&#227;o justa e r&#225;pida
  </text>

  <g transform="translate(180 350)" fill="#e2e8f0" font-size="24" font-family="ui-sans-serif, system-ui, -apple-system, Segoe UI, Roboto, Helvetica, Arial" opacity="0.92">
    <text x="0" y="0">Cadastre participantes</text>
    <text x="0" y="44">Lance despesas</text>
    <text x="0" y="88">Veja quem manda pra quem</text>
  </g>
</svg>

